<svg xmlns="http://www.w3.org/2000/svg" xmlns:xlink="http://www.w3.org/1999/xlink" width="200" height="200">


    <circle id="nucleo_back" fill="#9FC073" fill-opacity=".1" cx="98.507" cy="98.507" r="98.507"/>
    <circle id="nucleo_front" fill="#F9F8EF" cx="98.507" cy="98.507" r="68.657"/>

    <g width="200" height="200">
      <g fill="none" fill-rule="evenodd" stroke="#F8B7BA" stroke-linecap="round" stroke-linejoin="round" stroke-opacity=".399" stroke-width="5" transform="translate(60 83.8)">
        <path d="M0 .2c5.333-.667 10.333.333 15 3 7 4 7 13 14 13">
          <animateTransform
                attributeName="transform"
                begin="0s"
                dur="20s"
                type="rotate"
                from="0 18 32"
                to="-360 18 32"
                repeatCount="indefinite"
            />
        </path>
        <circle cx="53" cy="42.693" r="11"/>
      </g>

      <animateTransform
            attributeName="transform"
            begin="0s"
            dur="30s"
            type="rotate"
            from="0 100 100"
            to="-360 100 100"
            repeatCount="indefinite"
        />
    </g>

    <g>
      <circle id="macchia_grande" fill="#2094FE" fill-opacity=".1" cx="80" cy="90" r="16"/>
      <animateTransform
            attributeName="transform"
            begin="0s"
            dur="80s"
            type="rotate"
            from="180 100 100"
            to="-180 100 100"
            repeatCount="indefinite"
        />
    </g>

    <g>
      <path id ="blue" fill="#2094FE" d="M100.557 167.47c8.29.644.311 12.118.947 14.67.637 2.55 8.598 18.18-.967 17.855-9.566-.325-3.181-12.757-2.86-16.902.322-4.145-5.41-16.265 2.88-15.622zm-33.81-8.76c6.858 4.702-5.789 10.65-6.514 13.177-.724 2.527-1.644 20.044-9.766 14.98-8.122-5.065 3.624-12.638 5.975-16.067 2.35-3.43 3.447-16.792 10.305-12.09zm75.625 11.672c1.827 1.892 16.537 11.446 8.09 15.948-8.447 4.501-9.133-9.457-10.927-13.208-1.794-3.75-12.818-11.381-5.317-14.97 7.5-3.588 6.328 10.339 8.154 12.23zM41.847 134.218c3.589 7.5-10.338 6.328-12.23 8.154-1.89 1.827-11.445 16.537-15.947 8.09-4.501-8.447 9.457-9.133 13.208-10.927 3.75-1.794 11.381-12.818 14.97-5.317zm130.04 5.549c2.527.724 20.044 1.644 14.98 9.766-5.065 8.122-12.638-3.624-16.067-5.975-3.43-2.35-16.792-3.447-12.09-10.305 4.702-6.858 10.65 5.789 13.177 6.514zm-154.98-42.09c4.145.322 16.265-5.41 15.622 2.88-.643 8.29-12.117.311-14.668.947-2.551.637-18.18 8.598-17.856-.967.325-9.566 12.757-3.181 16.902-2.86zm183.088 1.786c-.325 9.566-12.757 3.181-16.902 2.86-4.145-.322-16.265 5.41-15.622-2.88.643-8.29 12.117-.311 14.668-.947 2.551-.637 18.18-8.598 17.856.967zM29.2 56.442c3.43 2.35 16.792 3.447 12.09 10.305-4.702 6.858-10.65-5.789-13.177-6.514-2.527-.724-20.044-1.644-14.98-9.766 5.065-8.122 12.638 3.624 16.067 5.975zm157.13-6.904c4.501 8.447-9.457 9.133-13.208 10.927-3.75 1.794-11.381 12.818-14.97 5.317-3.588-7.5 10.339-6.328 12.23-8.154 1.892-1.827 11.446-16.537 15.948-8.09zM60.465 26.878c1.794 3.75 12.818 11.381 5.317 14.97-7.5 3.588-6.328-10.339-8.154-12.23-1.827-1.892-16.537-11.446-8.09-15.948 8.447-4.501 9.133 9.457 10.927 13.208zm89.068-13.744c8.122 5.064-3.624 12.637-5.975 16.066-2.35 3.43-3.447 16.792-10.305 12.09-6.858-4.702 5.789-10.65 6.514-13.177.724-2.527 1.644-20.044 9.766-14.98zM99.463.005c9.566.325 3.181 12.757 2.86 16.902-.322 4.145 5.41 16.265-2.88 15.622-8.29-.643-.311-12.117-.947-14.668-.637-2.551-8.598-18.18.967-17.856z"/>

      <path  id ="red" fill="#EF443B" d="M84.64 159.276c7.117 2.51-2.573 10.695-2.615 13.081-.041 2.386 3.267 17.957-5.042 15.425-8.31-2.531.208-11.93 1.464-15.487 1.255-3.558-.923-15.53 6.193-13.019zm35.972 12.374c1.157 2.087 11.808 13.918 3.346 15.88-8.462 1.962-5.785-10.435-6.477-14.144-.691-3.71-8.563-12.988-1.145-14.372 7.419-1.383 3.12 10.55 4.276 12.636zM57.06 143.655c4.908 5.732-7.576 7.975-8.805 10.02-1.229 2.046-6.15 17.185-12.08 10.838-5.93-6.347 6.146-10.227 9.012-12.68 2.866-2.454 6.966-13.91 11.873-8.178zm96.616 8.09c2.045 1.229 17.184 6.15 10.837 12.08-6.347 5.93-10.227-6.146-12.68-9.012-2.454-2.866-13.91-6.966-8.178-11.873 5.732-4.908 7.975 7.576 10.02 8.805zm-112.69-35.409c1.383 7.419-10.55 3.12-12.636 4.276-2.087 1.157-13.918 11.808-15.88 3.346-1.962-8.462 10.435-5.785 14.144-6.477 3.71-.691 12.988-8.563 14.372-1.145zm131.371 1.639c2.386.041 17.957-3.267 15.425 5.042-2.531 8.31-11.93-.208-15.487-1.464-3.558-1.255-15.53.923-13.019-6.193 2.51-7.117 10.695 2.573 13.081 2.615zM27.705 78.447c3.558 1.255 15.53-.923 13.019 6.193-2.51 7.117-10.695-2.573-13.081-2.615-2.386-.041-17.957 3.267-15.425-5.042 2.531-8.31 11.93.208 15.487 1.464zm159.825-2.405c1.962 8.462-10.435 5.785-14.144 6.477-3.71.691-12.988 8.563-14.372 1.145-1.383-7.419 10.55-3.12 12.636-4.276 2.087-1.157 13.918-11.808 15.88-3.346zM48.168 45.187c2.453 2.866 13.91 6.966 8.177 11.873-5.732 4.908-7.975-7.576-10.02-8.805-2.046-1.229-17.185-6.15-10.838-12.08 6.347-5.93 10.227 6.146 12.68 9.012zm115.657-9.7c5.93 6.347-6.146 10.227-9.012 12.68-2.866 2.454-6.966 13.91-11.873 8.178-4.908-5.732 7.576-7.975 8.805-10.02 1.229-2.046 6.15-17.185 12.08-10.838zm-81.306-8.873c.691 3.71 8.563 12.988 1.145 14.372-7.419 1.383-3.12-10.55-4.276-12.636-1.157-2.087-11.808-13.918-3.346-15.88 8.462-1.962 5.785 10.435 6.477 14.144zm40.498-14.396c8.31 2.531-.208 11.93-1.464 15.487-1.255 3.558.923 15.53-6.193 13.019-7.117-2.51 2.573-10.695 2.615-13.081.041-2.386-3.267-17.957 5.042-15.425z"/>

      <animateTransform
            attributeName="transform"
            begin="0s"
            dur="60s"
            type="rotate"
            from="0 100 100"
            to="360 100 100"
            repeatCount="indefinite"
        />
    </g>

</svg>
