<?xml version="1.0" encoding="UTF-8" standalone="no"?>
<!-- Created with Inkscape (http://www.inkscape.org/) -->

<svg
   xmlns:dc="http://purl.org/dc/elements/1.1/"
   xmlns:cc="http://creativecommons.org/ns#"
   xmlns:rdf="http://www.w3.org/1999/02/22-rdf-syntax-ns#"
   xmlns:svg="http://www.w3.org/2000/svg"
   xmlns="http://www.w3.org/2000/svg"
   xmlns:sodipodi="http://sodipodi.sourceforge.net/DTD/sodipodi-0.dtd"
   xmlns:inkscape="http://www.inkscape.org/namespaces/inkscape"
   width="210mm"
   height="297mm"
   viewBox="0 0 744.09448819 1052.3622047"
   id="svg2"
   version="1.1"
   inkscape:version="0.92.4 (5da689c313, 2019-01-14)"
   sodipodi:docname="onDataSostieniciRibbon.svg"
   inkscape:export-filename="C:\Users\aborruso\Documents\GitHub\ods16\comunicazione\ODS16_facebook_cover_withRibbon.png"
   inkscape:export-xdpi="90"
   inkscape:export-ydpi="90">
  <defs
     id="defs4">
    <mask
       id="mask3843">
      <g
         clip-path="url(#clipPath3831)"
         id="g4799">
        <g
           clip-path="url(#clipPath3835)"
           id="g4801">
          <g
             transform="translate(253.05,18.929)"
             id="g4803">
            <path
               style="fill:none;stroke:#080808;stroke-width:7.97009993;stroke-linejoin:round;stroke-miterlimit:10"
               inkscape:connector-curvature="0"
               d="m -249.07,-14.944 498.14,0 0,29.888 -498.14,0 0,-29.888 z"
               stroke-miterlimit="10"
               id="path4805" />
            <path
               style="fill:none;stroke:#181818;stroke-width:5.69290018;stroke-linejoin:round;stroke-miterlimit:10"
               inkscape:connector-curvature="0"
               d="m -249.07,-14.944 498.14,0 0,29.888 -498.14,0 0,-29.888 z"
               stroke-miterlimit="10"
               id="path4807" />
            <path
               style="fill:none;stroke:#282828;stroke-width:3.41580009;stroke-linejoin:round;stroke-miterlimit:10"
               inkscape:connector-curvature="0"
               d="m -249.07,-14.944 498.14,0 0,29.888 -498.14,0 0,-29.888 z"
               stroke-miterlimit="10"
               id="path4809" />
            <g
               clip-path="url(#clipPath3839)"
               id="g4811">
              <path
                 style="fill:#808080"
                 inkscape:connector-curvature="0"
                 d="m -253.05,-18.929 506.11,0 0,37.858 -506.11,0 0,-37.858 z"
                 id="path4813" />
              <path
                 style="fill:none;stroke:#787878;stroke-width:7.97009993;stroke-linejoin:round;stroke-miterlimit:10"
                 inkscape:connector-curvature="0"
                 d="m -249.07,-14.944 498.14,0 0,29.888 -498.14,0 0,-29.888 z"
                 stroke-miterlimit="10"
                 id="path4815" />
              <path
                 style="fill:none;stroke:#686868;stroke-width:5.69290018;stroke-linejoin:round;stroke-miterlimit:10"
                 inkscape:connector-curvature="0"
                 d="m -249.07,-14.944 498.14,0 0,29.888 -498.14,0 0,-29.888 z"
                 stroke-miterlimit="10"
                 id="path4817" />
              <path
                 style="fill:none;stroke:#585858;stroke-width:3.41580009;stroke-linejoin:round;stroke-miterlimit:10"
                 inkscape:connector-curvature="0"
                 d="m -249.07,-14.944 498.14,0 0,29.888 -498.14,0 0,-29.888 z"
                 stroke-miterlimit="10"
                 id="path4819" />
            </g>
            <path
               style="fill:none;stroke:#404040;stroke-width:1.13859999;stroke-linejoin:round;stroke-miterlimit:10"
               inkscape:connector-curvature="0"
               d="m -249.07,-14.944 498.14,0 0,29.888 -498.14,0 0,-29.888 z"
               stroke-miterlimit="10"
               id="path4821" />
          </g>
        </g>
      </g>
    </mask>
    <clipPath
       id="clipPath3831">
      <path
         inkscape:connector-curvature="0"
         d="m 0,0 506.1,0 0,37.858 L 0,37.858 0,0 Z"
         id="path4830" />
    </clipPath>
    <clipPath
       id="clipPath3835">
      <path
         inkscape:connector-curvature="0"
         d="m 0,0 506.1,0 0,37.858 L 0,37.858 0,0 Z"
         id="path4827" />
    </clipPath>
    <clipPath
       id="clipPath3839">
      <path
         inkscape:connector-curvature="0"
         d="m -249.07,-14.944 498.14,0 0,29.888 -498.14,0 0,-29.888 z"
         id="path4824" />
    </clipPath>
    <clipPath
       clipPathUnits="userSpaceOnUse"
       id="clipPath5576">
      <rect
         style="opacity:1;fill:#000000;fill-opacity:1;stroke:none;stroke-width:2;stroke-miterlimit:4;stroke-dasharray:none;stroke-opacity:1"
         id="rect5578"
         width="851"
         height="315"
         x="-881.04462"
         y="1084.3997"
         transform="matrix(0,-1,1,0,0,0)" />
    </clipPath>
  </defs>
  <sodipodi:namedview
     id="base"
     pagecolor="#ffffff"
     bordercolor="#666666"
     borderopacity="1.0"
     inkscape:pageopacity="0.0"
     inkscape:pageshadow="2"
     inkscape:zoom="0.49497474"
     inkscape:cx="949.10763"
     inkscape:cy="408.80455"
     inkscape:document-units="px"
     inkscape:current-layer="layer1"
     showgrid="false"
     inkscape:window-width="2560"
     inkscape:window-height="1017"
     inkscape:window-x="1912"
     inkscape:window-y="-8"
     inkscape:window-maximized="1" />
  <metadata
     id="metadata7">
    <rdf:RDF>
      <cc:Work
         rdf:about="">
        <dc:format>image/svg+xml</dc:format>
        <dc:type
           rdf:resource="http://purl.org/dc/dcmitype/StillImage" />
        <dc:title />
      </cc:Work>
    </rdf:RDF>
  </metadata>
  <g
     inkscape:label="Layer 1"
     inkscape:groupmode="layer"
     id="layer1">
    <g
       transform="matrix(0,1,-1,0,832.9519,-638.08568)"
       id="g4834"
       inkscape:export-xdpi="96"
       inkscape:export-ydpi="96"
       clip-path="url(#clipPath5576)"
       inkscape:export-filename="C:\Users\aborr\Desktop\trash\bitmap.png">
      <g
         transform="matrix(1.25,0,0,-1.25,160.46,146.25)"
         id="g4836">
        <g
           id="g5516"
           transform="translate(836.40631,8.8893424)">
          <g
             transform="matrix(0.7071,0.7071,-0.7071,0.7071,-229.72296,-142.08735)"
             id="g4840">
            <g
               mask="url(#mask3843)"
               id="g4842">
              <g
                 transform="translate(253.05,18.929)"
                 id="g4844">
                <!-- drop shadow -->
                <path
                   inkscape:connector-curvature="0"
                   d="m -253.05,-18.929 506.11,0 0,37.858 -506.11,0 0,-37.858 z"
                   id="path4846" />
              </g>
            </g>
          </g>
          <path
             style="fill:#cc0000"
             inkscape:connector-curvature="0"
             d="m -229.72296,-136.45176 352.23479,352.23479 -21.13381,21.13381 -352.23479,-352.23479 21.13381,-21.13381 z"
             id="path4848" />
          <text
             y="-77.361244"
             x="-9.6636515"
             id="text4852"
             transform="matrix(0.70710678,0.70710678,0.70710678,-0.70710678,0,0)"
             style="line-height:0%">
            <tspan
               id="tspan4854"
               font-size="9.9626px"
               font-weight="bold"
               style="font-weight:bold;font-size:9.96259975px;font-family:Helvetica;text-align:center;text-anchor:middle;fill:#eeeeee">CA' SUGNU</tspan>
          </text>
          <path
             style="fill:none;stroke:#f5f5f5;stroke-width:0.79702997;stroke-miterlimit:10;stroke-dasharray:4.98138, 1.19556"
             inkscape:connector-curvature="0"
             d="m -248.7436,-117.43113 16.90747,-16.90746 352.23479,352.23479 -16.90746,16.90747 -352.2348,-352.2348 z"
             stroke-miterlimit="10"
             id="path4856" />
        </g>
      </g>
    </g>
    <rect
       style="opacity:1;fill:#cc0000;fill-opacity:1;stroke:none;stroke-width:4.43045235;stroke-miterlimit:4;stroke-dasharray:none"
       id="rect67"
       width="20.360888"
       height="95.175308"
       x="183.18712"
       y="838.17426"
       transform="rotate(-45)"
       inkscape:export-filename="C:\Users\aborr\Desktop\trash\bitmap.png"
       inkscape:export-xdpi="96"
       inkscape:export-ydpi="96" />
    <g
       aria-label="SOSTIENICI"
       transform="rotate(45)"
       style="font-style:normal;font-variant:normal;font-weight:normal;font-stretch:normal;font-size:19.85937881px;line-height:1.25;font-family:OpenSymbol;-inkscape-font-specification:OpenSymbol;letter-spacing:0px;word-spacing:0px;fill:#ffffff;fill-opacity:1;stroke:none;stroke-width:0.49648446"
       id="text65">
      <path
         d="m 848.69739,-195.68426 h -3.79151 v -1.16364 q 0,-0.81454 -0.14546,-1.03757 -0.14545,-0.22303 -0.48485,-0.22303 -0.36848,0 -0.56242,0.30061 -0.18424,0.3006 -0.18424,0.91151 0,0.78545 0.21333,1.18303 0.20364,0.39757 1.15394,0.96 2.72485,1.61939 3.43272,2.65697 0.70788,1.03757 0.70788,3.34545 0,1.67757 -0.39757,2.47272 -0.38788,0.79515 -1.51273,1.33818 -1.12485,0.53334 -2.61818,0.53334 -1.63878,0 -2.80242,-0.62061 -1.15394,-0.6206 -1.51273,-1.5806 -0.35878,-0.96 -0.35878,-2.72485 v -1.02788 h 3.79151 v 1.9103 q 0,0.88243 0.15515,1.13455 0.16485,0.25212 0.57212,0.25212 0.40727,0 0.60121,-0.32 0.20364,-0.32 0.20364,-0.9503 0,-1.38667 -0.37818,-1.81333 -0.38788,-0.42667 -1.9103,-1.42546 -1.52243,-1.00848 -2.01697,-1.46424 -0.49455,-0.45576 -0.82424,-1.2606 -0.32,-0.80485 -0.32,-2.05576 0,-1.80363 0.45575,-2.63757 0.46546,-0.83394 1.49333,-1.2994 1.02788,-0.47515 2.48243,-0.47515 1.5903,0 2.70545,0.51394 1.12485,0.51394 1.48363,1.29939 0.36849,0.77576 0.36849,2.64727 z"
         style="font-style:normal;font-variant:normal;font-weight:normal;font-stretch:normal;font-family:Impact;-inkscape-font-specification:Impact;fill:#ffffff;stroke-width:0.49648446"
         id="path42" />
      <path
         d="m 859.65496,-191.24305 q 0,2.36606 -0.11637,3.35515 -0.10666,0.97939 -0.69818,1.79394 -0.58182,0.81454 -1.5806,1.2509 -0.99879,0.43637 -2.32727,0.43637 -1.26061,0 -2.26909,-0.40727 -0.99879,-0.41697 -1.6097,-1.24122 -0.61091,-0.82424 -0.72727,-1.79393 -0.11636,-0.9697 -0.11636,-3.39394 v -2.68606 q 0,-2.36606 0.10666,-3.34545 0.11637,-0.98909 0.69818,-1.80364 0.59152,-0.81454 1.59031,-1.2509 0.99878,-0.43637 2.32727,-0.43637 1.2606,0 2.25939,0.41697 1.00848,0.40727 1.61939,1.23152 0.61091,0.82424 0.72727,1.79393 0.11637,0.9697 0.11637,3.39394 z m -4.08242,-5.15878 q 0,-1.09576 -0.12606,-1.39637 -0.11637,-0.3103 -0.49455,-0.3103 -0.32,0 -0.49454,0.25212 -0.16485,0.24242 -0.16485,1.45455 v 7.3309 q 0,1.36727 0.10666,1.68727 0.11637,0.32 0.52364,0.32 0.41697,0 0.53333,-0.36848 0.11637,-0.36849 0.11637,-1.75515 z"
         style="font-style:normal;font-variant:normal;font-weight:normal;font-stretch:normal;font-family:Impact;-inkscape-font-specification:Impact;fill:#ffffff;stroke-width:0.49648446"
         id="path44" />
      <path
         d="m 869.83677,-195.68426 h -3.79152 v -1.16364 q 0,-0.81454 -0.14545,-1.03757 -0.14545,-0.22303 -0.48485,-0.22303 -0.36848,0 -0.56242,0.30061 -0.18424,0.3006 -0.18424,0.91151 0,0.78545 0.21333,1.18303 0.20364,0.39757 1.15394,0.96 2.72484,1.61939 3.43272,2.65697 0.70788,1.03757 0.70788,3.34545 0,1.67757 -0.39757,2.47272 -0.38788,0.79515 -1.51273,1.33818 -1.12485,0.53334 -2.61818,0.53334 -1.63879,0 -2.80242,-0.62061 -1.15394,-0.6206 -1.51273,-1.5806 -0.35879,-0.96 -0.35879,-2.72485 v -1.02788 h 3.79152 v 1.9103 q 0,0.88243 0.15515,1.13455 0.16485,0.25212 0.57212,0.25212 0.40727,0 0.60121,-0.32 0.20364,-0.32 0.20364,-0.9503 0,-1.38667 -0.37819,-1.81333 -0.38787,-0.42667 -1.9103,-1.42546 -1.52242,-1.00848 -2.01697,-1.46424 -0.49454,-0.45576 -0.82424,-1.2606 -0.32,-0.80485 -0.32,-2.05576 0,-1.80363 0.45576,-2.63757 0.46545,-0.83394 1.49333,-1.2994 1.02788,-0.47515 2.48242,-0.47515 1.59031,0 2.70546,0.51394 1.12484,0.51394 1.48363,1.29939 0.36849,0.77576 0.36849,2.64727 z"
         style="font-style:normal;font-variant:normal;font-weight:normal;font-stretch:normal;font-family:Impact;-inkscape-font-specification:Impact;fill:#ffffff;stroke-width:0.49648446"
         id="path46" />
      <path
         d="m 879.68888,-200.43577 v 3.14181 h -2.42424 v 12.55757 h -4.08242 v -12.55757 h -2.41454 v -3.14181 z"
         style="font-style:normal;font-variant:normal;font-weight:normal;font-stretch:normal;font-family:Impact;-inkscape-font-specification:Impact;fill:#ffffff;stroke-width:0.49648446"
         id="path48" />
      <path
         d="m 884.70221,-200.43577 v 15.69938 h -4.08242 v -15.69938 z"
         style="font-style:normal;font-variant:normal;font-weight:normal;font-stretch:normal;font-family:Impact;-inkscape-font-specification:Impact;fill:#ffffff;stroke-width:0.49648446"
         id="path50" />
      <path
         d="m 886.36039,-200.43577 h 6.80727 v 3.14181 h -2.72485 v 2.97697 h 2.5503 v 2.98667 h -2.5503 v 3.45212 h 2.99636 v 3.14181 h -7.07878 z"
         style="font-style:normal;font-variant:normal;font-weight:normal;font-stretch:normal;font-family:Impact;-inkscape-font-specification:Impact;fill:#ffffff;stroke-width:0.49648446"
         id="path52" />
      <path
         d="m 903.73735,-200.43577 v 15.69938 h -3.57818 l -2.12364,-7.13696 v 7.13696 h -3.41333 v -15.69938 h 3.41333 l 2.28849,7.06908 v -7.06908 z"
         style="font-style:normal;font-variant:normal;font-weight:normal;font-stretch:normal;font-family:Impact;-inkscape-font-specification:Impact;fill:#ffffff;stroke-width:0.49648446"
         id="path54" />
      <path
         d="m 909.44886,-200.43577 v 15.69938 h -4.08242 v -15.69938 z"
         style="font-style:normal;font-variant:normal;font-weight:normal;font-stretch:normal;font-family:Impact;-inkscape-font-specification:Impact;fill:#ffffff;stroke-width:0.49648446"
         id="path56" />
      <path
         d="m 920.63915,-193.58972 h -4.08242 v -2.73454 q 0,-1.19273 -0.13575,-1.48363 -0.12606,-0.30061 -0.57212,-0.30061 -0.50425,0 -0.64,0.35879 -0.13576,0.35879 -0.13576,1.55151 v 7.29212 q 0,1.14424 0.13576,1.49333 0.13575,0.34909 0.6109,0.34909 0.45576,0 0.59152,-0.34909 0.14545,-0.34909 0.14545,-1.63879 v -1.96848 h 4.08242 v 0.61091 q 0,2.43394 -0.34909,3.45212 -0.33939,1.01818 -1.52242,1.78424 -1.17333,0.76606 -2.89939,0.76606 -1.79394,0 -2.95757,-0.6497 -1.16364,-0.6497 -1.54182,-1.79394 -0.37818,-1.15394 -0.37818,-3.46181 v -4.58667 q 0,-1.69696 0.11636,-2.5406 0.11636,-0.85333 0.68848,-1.63879 0.58182,-0.78545 1.6,-1.23151 1.02788,-0.45576 2.35637,-0.45576 1.80363,0 2.97696,0.69818 1.17334,0.69818 1.54182,1.74546 0.36848,1.03757 0.36848,3.23878 z"
         style="font-style:normal;font-variant:normal;font-weight:normal;font-stretch:normal;font-family:Impact;-inkscape-font-specification:Impact;fill:#ffffff;stroke-width:0.49648446"
         id="path58" />
      <path
         d="m 926.20521,-200.43577 v 15.69938 h -4.08242 v -15.69938 z"
         style="font-style:normal;font-variant:normal;font-weight:normal;font-stretch:normal;font-family:Impact;-inkscape-font-specification:Impact;fill:#ffffff;stroke-width:0.49648446"
         id="path60" />
    </g>
  </g>
</svg>
